<?xml version="1.0" standalone="no"?><!-- Generator: Gravit.io --><svg xmlns="http://www.w3.org/2000/svg" xmlns:xlink="http://www.w3.org/1999/xlink" style="isolation:isolate" viewBox="999.235 648.5 277.529 190" width="277.529" height="190"><defs><clipPath id="_clipPath_FSU9Z3eurBW23IYCoKn8pZYz1fWUq4Oc"><rect x="999.235" y="648.5" width="277.529" height="190"/></clipPath></defs><g clip-path="url(#_clipPath_FSU9Z3eurBW23IYCoKn8pZYz1fWUq4Oc)"><g><path d=" M 1138 653 L 1225.437 653 C 1232.055 653 1239.781 657.831 1242.678 663.781 L 1267.015 713.76 C 1269.912 719.711 1272.265 729.915 1272.265 736.533 L 1272.265 822.008 C 1272.265 828.627 1266.891 834 1260.273 834 L 1138 834 L 1015.727 834 C 1009.109 834 1003.735 828.627 1003.735 822.008 L 1003.735 736.533 C 1003.735 729.915 1006.088 719.711 1008.985 713.76 L 1033.322 663.781 C 1036.219 657.831 1043.945 653 1050.563 653 L 1138 653 L 1138 653 Z " fill-rule="evenodd" fill="rgb(235,235,235)" vector-effect="non-scaling-stroke" stroke-width="3" stroke="rgb(0,0,0)" stroke-linejoin="miter" stroke-linecap="square" stroke-miterlimit="3"/><circle vector-effect="non-scaling-stroke" cx="1083.6865981660685" cy="774.6698154222408" r="41.669815422240845" fill="rgb(185,185,185)" stroke-width="2" stroke="rgb(0,0,0)" stroke-linejoin="miter" stroke-linecap="square" stroke-miterlimit="3"/><circle vector-effect="non-scaling-stroke" cx="1192.3134018339315" cy="774.6698154222408" r="41.669815422240845" fill="rgb(185,185,185)" stroke-width="2" stroke="rgb(0,0,0)" stroke-linejoin="miter" stroke-linecap="square" stroke-miterlimit="3"/></g></g></svg>