<?xml version="1.0" standalone="no"?><!-- Generator: Gravit.io --><svg xmlns="http://www.w3.org/2000/svg" xmlns:xlink="http://www.w3.org/1999/xlink" style="isolation:isolate" viewBox="0 0 1340.554 938.5" width="1340.554" height="938.5"><defs><clipPath id="_clipPath_BqOqDvIHMyGDIIjXoKCyjNj8q7orEzIO"><rect x="0" y="0" width="1340.554" height="938.5"/></clipPath></defs><g clip-path="url(#_clipPath_BqOqDvIHMyGDIIjXoKCyjNj8q7orEzIO)"><g transform="matrix(1,0,0,1,0,0)"><text transform="matrix(1,0,0,1,20.781,48.613)" style="font-family:'Open Sans';font-weight:400;font-size:20px;font-style:normal;fill:#000000;stroke:none;">padding: 0px;</text></g><g><path d=" M 1201.789 753 L 994.966 753 C 987.71 753 978.843 758.084 975.178 764.346 L 946.587 813.195 C 942.922 819.457 939.946 830.432 939.946 837.688 L 939.946 920.853 C 939.946 928.109 945.837 934 953.093 934 L 1201.789 934 L 1201.789 934 L 1324.062 934 C 1330.68 934 1336.054 928.627 1336.054 922.008 L 1336.054 764.992 C 1336.054 758.373 1330.68 753 1324.062 753 L 1201.789 753 L 1201.789 753 Z " fill-rule="evenodd" fill="rgb(235,235,235)" vector-effect="non-scaling-stroke" stroke-width="3" stroke="rgb(0,0,0)" stroke-linejoin="miter" stroke-linecap="square" stroke-miterlimit="3"/><circle vector-effect="non-scaling-stroke" cx="1275.2764274170395" cy="874.669815422241" r="41.669815422240845" fill="rgb(185,185,185)" stroke-width="2" stroke="rgb(0,0,0)" stroke-linejoin="miter" stroke-linecap="square" stroke-miterlimit="3"/><circle vector-effect="non-scaling-stroke" cx="1180.2764274170395" cy="874.669815422241" r="41.669815422240845" fill="rgb(185,185,185)" stroke-width="2" stroke="rgb(0,0,0)" stroke-linejoin="miter" stroke-linecap="square" stroke-miterlimit="3"/><circle vector-effect="non-scaling-stroke" cx="1085.2764274170395" cy="874.669815422241" r="41.669815422240845" fill="rgb(185,185,185)" stroke-width="2" stroke="rgb(0,0,0)" stroke-linejoin="miter" stroke-linecap="square" stroke-miterlimit="3"/></g></g></svg>