<?xml version="1.0" standalone="no"?><!-- Generator: Gravit.io --><svg xmlns="http://www.w3.org/2000/svg" xmlns:xlink="http://www.w3.org/1999/xlink" style="isolation:isolate" viewBox="935.446 648.5 405.108 190" width="405.108" height="190"><defs><clipPath id="_clipPath_DbTiFHP6ciJKuTu9M5mTLCCrxUW8G6bb"><rect x="935.446" y="648.5" width="405.108" height="190"/></clipPath></defs><g clip-path="url(#_clipPath_DbTiFHP6ciJKuTu9M5mTLCCrxUW8G6bb)"><g><path d=" M 1074.211 653 L 1281.034 653 C 1288.29 653 1297.157 658.084 1300.822 664.346 L 1329.413 713.195 C 1333.078 719.457 1336.054 730.432 1336.054 737.688 L 1336.054 820.853 C 1336.054 828.109 1330.163 834 1322.907 834 L 1074.211 834 L 951.938 834 C 945.32 834 939.946 828.627 939.946 822.008 L 939.946 664.992 C 939.946 658.373 945.32 653 951.938 653 L 1074.211 653 L 1074.211 653 Z " fill-rule="evenodd" fill="rgb(235,235,235)" vector-effect="non-scaling-stroke" stroke-width="3" stroke="rgb(0,0,0)" stroke-linejoin="miter" stroke-linecap="square" stroke-miterlimit="3"/><circle vector-effect="non-scaling-stroke" cx="1000.7235725829605" cy="774.669815422241" r="41.66981542224079" fill="rgb(185,185,185)" stroke-width="2" stroke="rgb(0,0,0)" stroke-linejoin="miter" stroke-linecap="square" stroke-miterlimit="3"/><circle vector-effect="non-scaling-stroke" cx="1095.7235725829605" cy="774.669815422241" r="41.669815422240845" fill="rgb(185,185,185)" stroke-width="2" stroke="rgb(0,0,0)" stroke-linejoin="miter" stroke-linecap="square" stroke-miterlimit="3"/><circle vector-effect="non-scaling-stroke" cx="1190.7235725829605" cy="774.669815422241" r="41.669815422240845" fill="rgb(185,185,185)" stroke-width="2" stroke="rgb(0,0,0)" stroke-linejoin="miter" stroke-linecap="square" stroke-miterlimit="3"/></g></g></svg>