<?xml version="1.0" standalone="no"?><!-- Generator: Gravit.io --><svg xmlns="http://www.w3.org/2000/svg" xmlns:xlink="http://www.w3.org/1999/xlink" style="isolation:isolate" viewBox="769.862 1300 736.275 87" width="736.275" height="87"><defs><clipPath id="_clipPath_283bvOCzn6GWoK1FaYh8AIu4WDCZaKcK"><rect x="769.862" y="1300" width="736.275" height="87"/></clipPath></defs><g clip-path="url(#_clipPath_283bvOCzn6GWoK1FaYh8AIu4WDCZaKcK)"><path d=" M 1004 1341.5 L 793.462 1341.5 L 793.462 1341.5 C 782.921 1341.5 774.362 1350.058 774.362 1360.6 L 774.362 1382.5 L 1004 1382.5 L 1004 1382.5 L 1272 1382.5 L 1272 1382.5 L 1272 1382.5 L 1501.638 1382.5 L 1501.638 1360.5 C 1501.638 1350.014 1493.124 1341.5 1482.638 1341.5 L 1272 1341.5 L 1272 1323.5 C 1272 1313.014 1263.486 1304.5 1253 1304.5 L 1023 1304.5 C 1012.514 1304.5 1004 1313.014 1004 1323.5 L 1004 1341.5 Z " fill-rule="evenodd" fill="rgb(91,91,91)" vector-effect="non-scaling-stroke" stroke-width="3" stroke="rgb(0,0,0)" stroke-linejoin="miter" stroke-linecap="square" stroke-miterlimit="3"/></g></svg>