<?xml version="1.0" standalone="no"?><!-- Generator: Gravit.io --><svg xmlns="http://www.w3.org/2000/svg" xmlns:xlink="http://www.w3.org/1999/xlink" style="isolation:isolate" viewBox="914.142 1113.548 85.342 85.342" width="85.342" height="85.342"><defs><clipPath id="_clipPath_xh6jqYE99tiKGWmWDUliG6sbTsVf7PT2"><rect x="914.142" y="1113.548" width="85.342" height="85.342"/></clipPath></defs><g clip-path="url(#_clipPath_xh6jqYE99tiKGWmWDUliG6sbTsVf7PT2)"><g><path d=" M 915.213 1153.803 C 916.546 1130.843 936.269 1113.286 959.228 1114.619 C 982.188 1115.952 999.746 1135.675 998.412 1158.635 C 997.079 1181.594 977.356 1199.152 954.397 1197.818 C 931.437 1196.485 913.879 1176.762 915.213 1153.803 Z " fill="rgb(255,200,0)" vector-effect="non-scaling-stroke" stroke-width="2" stroke="rgb(0,0,0)" stroke-linejoin="miter" stroke-linecap="square" stroke-miterlimit="3"/><path d=" M 923.199 1154.267 C 924.277 1135.715 940.213 1121.528 958.765 1122.606 C 977.316 1123.683 991.503 1139.619 990.426 1158.171 C 989.348 1176.722 973.412 1190.909 954.86 1189.832 C 936.309 1188.755 922.122 1172.818 923.199 1154.267 Z " fill="rgb(255,255,255)" vector-effect="non-scaling-stroke" stroke-width="2" stroke="rgb(255,200,0)" stroke-linejoin="miter" stroke-linecap="square" stroke-miterlimit="3"/><path d=" M 931.36 1134.489 C 942.194 1121.652 961.183 1118.643 975.567 1128.1 C 977.451 1129.338 979.169 1130.734 980.717 1132.259 L 957.07 1156.234 L 931.36 1134.489 Z " fill="rgb(77,77,77)" vector-effect="non-scaling-stroke" stroke-width="5" stroke="rgb(255,200,0)" stroke-linejoin="miter" stroke-linecap="square" stroke-miterlimit="3"/><path d=" M 943.015 1144.831 C 948.982 1137.96 959.292 1136.475 967.011 1141.707 C 968.022 1142.393 968.943 1143.162 969.77 1144 L 956.777 1156.807 L 943.015 1144.831 Z " fill="rgb(77,77,77)" vector-effect="non-scaling-stroke" stroke-width="2" stroke="rgb(255,200,0)" stroke-linejoin="miter" stroke-linecap="square" stroke-miterlimit="3"/><path d=" M 982.071 1177.937 C 971.237 1190.774 952.248 1193.783 937.864 1184.326 C 935.98 1183.087 934.262 1181.691 932.714 1180.167 L 956.361 1156.192 L 982.071 1177.937 Z " fill="rgb(77,77,77)" vector-effect="non-scaling-stroke" stroke-width="5" stroke="rgb(255,200,0)" stroke-linejoin="miter" stroke-linecap="square" stroke-miterlimit="3"/><path d=" M 970.416 1167.594 C 964.449 1174.466 954.139 1175.951 946.42 1170.718 C 945.409 1170.033 944.488 1169.264 943.661 1168.426 L 956.654 1155.619 L 970.416 1167.594 Z " fill="rgb(77,77,77)" vector-effect="non-scaling-stroke" stroke-width="2" stroke="rgb(255,200,0)" stroke-linejoin="miter" stroke-linecap="square" stroke-miterlimit="3"/><path d=" M 940.505 1155.272 C 941.028 1146.271 948.759 1139.389 957.76 1139.911 C 966.76 1140.434 973.643 1148.166 973.12 1157.166 C 972.597 1166.166 964.866 1173.049 955.865 1172.526 C 946.865 1172.003 939.982 1164.272 940.505 1155.272 Z " fill="rgb(255,255,255)" vector-effect="non-scaling-stroke" stroke-width="2" stroke="rgb(77,77,77)" stroke-linejoin="miter" stroke-linecap="square" stroke-miterlimit="3"/><line x1="943.305" y1="1146.421" x2="935.406" y2="1139.745" vector-effect="non-scaling-stroke" stroke-width="2.2" stroke="rgb(77,77,77)" stroke-linejoin="miter" stroke-linecap="square" stroke-miterlimit="3"/><line x1="978.402" y1="1173.053" x2="970.503" y2="1166.377" vector-effect="non-scaling-stroke" stroke-width="2.2" stroke="rgb(77,77,77)" stroke-linejoin="miter" stroke-linecap="square" stroke-miterlimit="3"/><line x1="977.392" y1="1137.621" x2="969.555" y2="1145.563" vector-effect="non-scaling-stroke" stroke-width="2.2" stroke="rgb(77,77,77)" stroke-linejoin="miter" stroke-linecap="square" stroke-miterlimit="3"/><line x1="943.711" y1="1167.053" x2="936.23" y2="1174.601" vector-effect="non-scaling-stroke" stroke-width="2.2" stroke="rgb(77,77,77)" stroke-linejoin="miter" stroke-linecap="square" stroke-miterlimit="3"/></g></g></svg>