<?xml version="1.0" standalone="no"?><!-- Generator: Gravit.io --><svg xmlns="http://www.w3.org/2000/svg" xmlns:xlink="http://www.w3.org/1999/xlink" style="isolation:isolate" viewBox="1011.657 553.001 252.686 380.997" width="252.686" height="380.997"><defs><clipPath id="_clipPath_9QkstaFu3pHbJLUhBNI9yvW3h1VN26b8"><rect x="1011.657" y="553.001" width="252.686" height="380.997"/></clipPath></defs><g clip-path="url(#_clipPath_9QkstaFu3pHbJLUhBNI9yvW3h1VN26b8)"><g><path d=" M 1197.768 915.142 L 1198.839 915.152 L 1247.953 915.596 C 1258.495 915.691 1262.841 908.318 1257.653 899.141 L 1233.48 856.384 L 1209.307 813.628 C 1208.274 811.801 1207.107 810.335 1205.859 809.229 L 1205.859 658.954 C 1205.859 658.247 1205.823 657.548 1205.736 656.865 C 1206.462 648.62 1204.085 639.059 1198.2 628.867 L 1184.308 604.804 L 1170.416 580.742 C 1152.525 549.754 1123.475 549.754 1105.584 580.742 L 1091.692 604.804 L 1077.8 628.867 C 1071.915 639.059 1069.538 648.62 1070.264 656.865 C 1070.177 657.548 1070.141 658.247 1070.141 658.954 L 1070.141 810.906 C 1069.518 811.656 1068.923 812.505 1068.363 813.455 L 1043.422 855.768 L 1018.48 898.081 C 1013.127 907.163 1017.339 914.613 1027.881 914.708 L 1076.996 915.152 L 1077.887 915.16 C 1075.146 922.741 1079.521 928.527 1088.803 928.611 L 1137.917 929.054 L 1187.032 929.498 C 1196.756 929.586 1201.209 923.318 1197.768 915.142 Z " fill-rule="evenodd" fill="rgb(91,91,91)" vector-effect="non-scaling-stroke" stroke-width="3" stroke="rgb(0,0,0)" stroke-linejoin="miter" stroke-linecap="square" stroke-miterlimit="3"/><circle vector-effect="non-scaling-stroke" cx="1137.9999999999993" cy="671.6422786682899" r="41.669815422240845" fill="rgb(32,32,32)" stroke-width="2" stroke="rgb(255,255,255)" stroke-linejoin="miter" stroke-linecap="square" stroke-miterlimit="3"/><circle vector-effect="non-scaling-stroke" cx="1137.9999999999993" cy="763.8931245321053" r="41.669815422240845" fill="rgb(32,32,32)" stroke-width="2" stroke="rgb(255,255,255)" stroke-linejoin="miter" stroke-linecap="square" stroke-miterlimit="3"/><circle vector-effect="non-scaling-stroke" cx="1137.9999999999993" cy="856.9266432125839" r="41.669815422240845" fill="rgb(32,32,32)" stroke-width="2" stroke="rgb(255,255,255)" stroke-linejoin="miter" stroke-linecap="square" stroke-miterlimit="3"/></g></g></svg>